{
  "accessors": [
    {
      "bufferView": 2,
      "componentType": 5126,
      "count": 370,
      "max": [
        0.32790327072143555,
        0.699999988079071,
        0.2000354826450348
      ],
      "min": [
        -0.699999988079071,
        -0.699999988079071,
        -0.20007355511188507
      ],
      "type": "VEC3"
    },
    {
      "bufferView": 2,
      "byteOffset": 4440,
      "componentType": 5126,
      "count": 370,
      "max": [
        0.9999951720237732,
        1.0,
        1.0
      ],
      "min": [
        -1.0,
        -1.0,
        -1.0
      ],
      "type": "VEC3"
    },
    {
      "bufferView": 1,
      "componentType": 5126,
      "count": 370,
      "max": [
        1.0,
        1.0
      ],
      "min": [
        8.881784197001252e-16,
        0.0
      ],
      "type": "VEC2"
    },
    {
      "bufferView": 0,
      "componentType": 5125,
      "count": 1872,
      "type": "SCALAR"
    },
    {
      "bufferView": 2,
      "byteOffset": 8880,
      "componentType": 5126,
      "count": 152,
      "max": [
        1.6091886758804321,
        0.9114388823509216,
        0.4544002413749695
      ],
      "min": [
        0.24203038215637207,
        -0.9114388823509216,
        -0.45440036058425903
      ],
      "type": "VEC3"
    },
    {
      "bufferView": 2,
      "byteOffset": 10704,
      "componentType": 5126,
      "count": 152,
      "max": [
        0.9890282154083252,
        0.9785877466201782,
        0.997196614742279
      ],
      "min": [
        -0.9890282154083252,
        -0.9785877466201782,
        -0.997196614742279
      ],
      "type": "VEC3"
    },
    {
      "bufferView": 1,
      "byteOffset": 2960,
      "componentType": 5126,
      "count": 152,
      "max": [
        0.0,
        0.0
      ],
      "min": [
        0.0,
        0.0
      ],
      "type": "VEC2"
    },
    {
      "bufferView": 0,
      "byteOffset": 7488,
      "componentType": 5125,
      "count": 900,
      "type": "SCALAR"
    }
  ],
  "asset": {
    "extras": {
      "author": "Dogan Kirnaz (https://sketchfab.com/dogankirnaz)",
      "license": "CC-BY-4.0 (http://creativecommons.org/licenses/by/4.0/)",
      "source": "https://sketchfab.com/3d-models/padlock-275b60e1753143889793c4f712362cec",
      "title": "Padlock"
    },
    "generator": "Sketchfab-15.49.0",
    "version": "2.0"
  },
  "bufferViews": [
    {
      "buffer": 0,
      "byteLength": 11088,
      "name": "floatBufferViews",
      "target": 34963
    },
    {
      "buffer": 0,
      "byteLength": 4176,
      "byteOffset": 11088,
      "byteStride": 8,
      "name": "floatBufferViews",
      "target": 34962
    },
    {
      "buffer": 0,
      "byteLength": 12528,
      "byteOffset": 15264,
      "byteStride": 12,
      "name": "floatBufferViews",
      "target": 34962
    }
  ],
  "buffers": [
    {
      "byteLength": 27792,
      "uri": "padlock.bin"
    }
  ],
  "materials": [
    {
      "doubleSided": true,
      "name": "Material.002",
      "pbrMetallicRoughness": {
        "baseColorFactor": [
          0.43701691726124997,
          0.43701691726124997,
          0.43701691726124997,
          1.0
        ],
        "metallicFactor": 0.0,
        "roughnessFactor": 0.3626376481161999
      }
    },
    {
      "doubleSided": true,
      "name": "Material.001",
      "pbrMetallicRoughness": {
        "baseColorFactor": [
          0.8726746208055324,
          0.542062069234222,
          0.0,
          1.0
        ],
        "metallicFactor": 0.0,
        "roughnessFactor": 0.3383456092246456
      }
    }
  ],
  "meshes": [
    {
      "name": "Torus_Material.002_0",
      "primitives": [
        {
          "attributes": {
            "NORMAL": 1,
            "POSITION": 0,
            "TEXCOORD_0": 2
          },
          "indices": 3,
          "material": 0,
          "mode": 4
        }
      ]
    },
    {
      "name": "Torus_Material.001_0",
      "primitives": [
        {
          "attributes": {
            "NORMAL": 5,
            "POSITION": 4,
            "TEXCOORD_0": 6
          },
          "indices": 7,
          "material": 1,
          "mode": 4
        }
      ]
    }
  ],
  "nodes": [
    {
      "children": [
        1
      ],
      "matrix": [
        1.0,
        1.6081226229577292e-16,
        1.7853747624282703e-32,
        0.0,
        8.006836424271825e-33,
        6.123234262925839e-17,
        -1.0,
        0.0,
        -1.6081226229577292e-16,
        1.0,
        6.123234262925839e-17,
        0.0,
        0.0,
        0.0,
        0.0,
        1.0
      ],
      "name": "Sketchfab_model"
    },
    {
      "children": [
        2
      ],
      "matrix": [
        0.009999999776482582,
        0.0,
        0.0,
        0.0,
        0.0,
        0.0,
        0.009999999776482582,
        0.0,
        0.0,
        -0.009999999776482582,
        0.0,
        0.0,
        0.0,
        0.0,
        0.0,
        1.0
      ],
      "name": "padlock.fbx"
    },
    {
      "children": [
        3
      ],
      "name": "RootNode"
    },
    {
      "children": [
        4,
        5
      ],
      "matrix": [
        -4.795866010011351e-06,
        -109.71662139892548,
        6.5396194648555095e-06,
        0.0,
        -1.7875106815595127e-05,
        -6.539618685272026e-06,
        -109.71662139892412,
        0.0,
        109.71662139892422,
        -4.795867075848145e-06,
        -1.787510652325132e-05,
        0.0,
        0.0,
        101.55474853515625,
        0.0,
        1.0
      ],
      "name": "Torus"
    },
    {
      "mesh": 0,
      "name": "Torus_Material.002_0"
    },
    {
      "mesh": 1,
      "name": "Torus_Material.001_0"
    }
  ],
  "scene": 0,
  "scenes": [
    {
      "name": "Sketchfab_Scene",
      "nodes": [
        0
      ]
    }
  ]
}
